Coordinates
version=1
nRows=26
nColumns=22
inDegrees=yes

Units are S.I. units (second, meters, Newtons, ...)
If the header above contains a line with 'inDegrees', this indicates whether rotational values are in degrees (yes) or radians (no).

endheader
time	pelvis_tilt	pelvis_list	pelvis_rotation	pelvis_tx	pelvis_ty	pelvis_tz	hip_flexion_r	hip_adduction_r	hip_rotation_r	knee_angle_r	ankle_angle_r	subtalar_angle_r	hip_flexion_l	hip_adduction_l	hip_rotation_l	knee_angle_l	ankle_angle_l	subtalar_angle_l	lumbar_extension	lumbar_bending	lumbar_rotation
      2.11000000	     -2.03756640	     -1.83792862	    -30.37758958	      0.30004538	      0.87423841	      0.31654512	     35.43807395	     -1.32046463	     -2.91055596	    -58.24633018	     13.41321924	    -14.12892341	    -11.06954771	      1.72249041	     -2.31015871	    -32.57898813	     -0.83810894	      2.09746339	    -13.33091958	      1.45138061	    -10.35009182
      2.12000000	     -2.28128570	     -2.22060803	    -30.72904709	      0.32185308	      0.87875171	      0.33055430	     35.19836379	     -0.28922219	     -3.65958848	    -52.81518049	     12.22979458	    -11.64857831	    -12.69047715	      1.14079983	     -1.51262969	    -31.53946893	     -4.99468527	      3.36409174	    -12.66836841	      2.12943812	    -11.41908472
      2.13000000	     -2.44637409	     -2.49923022	    -30.92704416	      0.34386231	      0.88265292	      0.34447516	     34.65151862	      0.56226361	     -4.53201107	    -47.27136341	     10.66405319	     -8.81343590	    -14.06081871	      0.65364949	     -0.49978223	    -30.87438139	     -8.67575821	      4.31274417	    -12.05083399	      2.67034691	    -12.55867269
      2.14000000	     -2.52317230	     -2.68525044	    -30.98659951	      0.36602627	      0.88574368	      0.35837270	     33.86414369	      1.27676896	     -5.47783123	    -41.80741638	      8.80038947	     -5.75256375	    -15.15201320	      0.22244297	      0.58174369	    -30.67976257	    -11.71370013	      4.96109966	    -11.47814366	      3.06299295	    -13.73975766
      2.15000000	     -2.53162571	     -2.76325752	    -30.91332111	      0.38827444	      0.88781292	      0.37223397	     32.96575047	      1.86858287	     -6.44026772	    -36.65013844	      6.81501682	     -2.59217257	    -15.88003597	     -0.16695013	      1.62643929	    -31.05913823	    -14.05492016	      5.31568068	    -10.91895929	      3.29297514	    -14.92741127
      2.16000000	     -2.42014898	     -2.78702784	    -30.76253740	      0.41044132	      0.88887372	      0.38607862	     31.98600245	      2.39493264	     -7.29476480	    -32.01700976	      4.75123339	      0.29662887	    -16.28843966	     -0.54175510	      2.45684694	    -32.07049876	    -15.63672914	      5.41917819	    -10.47421032	      3.36983764	    -16.07404746
      2.17000000	     -2.27300290	     -2.73995018	    -30.56601317	      0.43244980	      0.88875099	      0.39988876	     31.10350842	      2.86491347	     -8.01931623	    -28.11130591	      2.88303653	      2.78954697	    -16.26563446	     -0.92238713	      3.03212329	    -33.75067900	    -16.54266922	      5.29206905	    -10.04400862	      3.32268072	    -17.08238753
      2.18000000	     -2.05426763	     -2.69691794	    -30.35876534	      0.45415732	      0.88756772	      0.41361691	     30.30405876	      3.30920268	     -8.58739299	    -25.06092381	      1.35001438	      4.56388730	    -15.88006208	     -1.36201415	      3.27737229	    -36.09091883	    -16.80907121	      4.98718014	     -9.72986711	      3.20591140	    -17.93743085
      2.19000000	     -1.82110875	     -2.69614653	    -30.17593538	      0.47549601	      0.88533696	      0.42724803	     29.64358189	      3.77120402	     -9.01005276	    -22.92284245	      0.34516533	      5.51702804	    -15.11740887	     -1.92001335	      3.21108282	    -39.04116772	    -16.61957155	      4.54319097	     -9.49732654	      3.09314466	    -18.56227965
      2.20000000	     -1.56748926	     -2.80620947	    -30.02716301	      0.49642067	      0.88219620	      0.44072632	     29.08734895	      4.28295301	     -9.33793324	    -21.70960765	     -0.03272968	      5.52185847	    -14.06018063	     -2.64986619	      2.91855759	    -42.51199550	    -16.03262986	      4.07937983	     -9.39819102	      3.05678305	    -18.93899045
      2.21000000	     -1.30030309	     -3.05781145	    -29.93947977	      0.51688479	      0.87825848	      0.45402329	     28.63422928	      4.86937010	     -9.58497050	    -21.41359632	      0.21122149	      4.53574857	    -12.75909876	     -3.57791159	      2.45605582	    -46.40218738	    -15.17510803	      3.41843817	     -9.44493974	      3.13556828	    -19.03430338
      2.22000000	     -1.03476265	     -3.46298543	    -29.88696849	      0.53689007	      0.87362909	      0.46703792	     28.27798597	      5.53747794	     -9.73835383	    -21.97116732	      1.09200738	      2.63504185	    -11.23707981	     -4.69573628	      2.00815311	    -50.62214233	    -14.13439407	      2.82143990	     -9.63146214	      3.36098097	    -18.88439012
      2.23000000	     -0.72462288	     -4.01050001	    -29.94362769	      0.55639462	      0.86844839	      0.47982905	     28.02071591	      6.28815183	     -9.72368066	    -23.40910109	      2.59839492	     -0.18991859	     -9.60345239	     -5.94777347	      1.55053863	    -55.02844523	    -12.89399670	      2.18329808	    -10.00430715	      3.68638682	    -18.40898908
      2.24000000	     -0.42232115	     -4.66347125	    -30.04096208	      0.57543183	      0.86278841	      0.49224411	     27.90315856	      7.10025771	     -9.56075685	    -25.61060852	      4.58045352	     -3.56303346	     -7.77120477	     -7.30211452	      1.25250414	    -59.57578896	    -11.62941556	      1.57401563	    -10.48870559	      4.11760305	    -17.69923224
      2.25000000	     -0.09051528	     -5.38797111	    -30.20289651	      0.59400850	      0.85683715	      0.50430173	     27.88003582	      7.97018441	     -9.16375379	    -28.46182867	      6.91763304	     -7.32036208	     -5.79982347	     -8.67801159	      1.12126700	    -64.14252625	    -10.29348602	      0.96032030	    -11.10804827	      4.59348535	    -16.75113890
      2.26000000	      0.27689934	     -6.16125179	    -30.40267319	      0.61215880	      0.85080759	      0.51598562	     27.88290431	      8.89788938	     -8.55971535	    -31.76008080	      9.45825385	    -11.19346512	     -3.69365351	    -10.03048369	      1.19816922	    -68.63639801	     -8.90236379	      0.32164896	    -11.85315705	      5.07928990	    -15.58517708
      2.27000000	      0.57871929	     -6.92123623	    -30.57666517	      0.62992979	      0.84473564	      0.52722616	     27.95954202	      9.87616867	     -7.83183163	    -35.28635432	     12.05152250	    -14.81620512	     -1.27460629	    -11.34717001	      1.55520056	    -73.02845052	     -7.63072131	     -0.30485597	    -12.57302205	      5.58534206	    -14.34406811
      2.28000000	      0.93851891	     -7.72874529	    -30.73531375	      0.64742505	      0.83914629	      0.53808188	     27.82323050	     10.90631681	     -7.05230684	    -38.75332122	     14.58864180	    -18.20472052	      1.22499922	    -12.58792978	      2.13809337	    -77.13776139	     -6.22710053	     -0.99687590	    -13.42477507	      6.08837651	    -12.93494665
      2.29000000	      1.23601188	     -8.52655022	    -30.82225051	      0.66467750	      0.83405409	      0.54850995	     27.54358864	     11.95524026	     -6.34624360	    -41.96626293	     16.99604101	    -21.05813015	      4.00406008	    -13.75781184	      2.99850768	    -80.94305733	     -4.90851147	     -1.69877586	    -14.23674197	      6.61347643	    -11.49356802
      2.30000000	      1.49972475	     -9.31078046	    -30.81526576	      0.68177282	      0.82973711	      0.55849249	     27.01093024	     12.96833623	     -5.77540778	    -44.74089144	     19.25597408	    -23.38445730	      7.00777278	    -14.79730106	      4.12902208	    -84.33336162	     -3.61886876	     -2.39372282	    -15.02047801	      7.14536691	    -10.00428336
      2.31000000	      1.73511697	    -10.06394955	    -30.71888514	      0.69874842	      0.82634039	      0.56809920	     26.19443126	     13.90443674	     -5.36673006	    -46.98830325	     21.35654258	    -25.21029369	     10.19577849	    -15.67777268	      5.46760600	    -87.21625265	     -2.36947909	     -3.06131014	    -15.75483638	      7.65623777	     -8.47671932
      2.32000000	      1.95010054	    -10.75444603	    -30.53592484	      0.71564432	      0.82396696	      0.57736176	     25.08093691	     14.72056420	     -5.09919224	    -48.65033046	     23.29584681	    -26.59256147	     13.52176765	    -16.33970410	      6.95385956	    -89.51415720	     -1.18208207	     -3.66620183	    -16.41491401	      8.11216904	     -6.90120116
      2.33000000	      2.14448027	    -11.35409261	    -30.27117786	      0.73249979	      0.82265465	      0.58633560	     23.68641109	     15.39001054	     -4.94659564	    -49.71444462	     25.06497622	    -27.53884077	     16.92948138	    -16.75109770	      8.51296074	    -91.16079797	     -0.13591170	     -4.14077694	    -16.96582816	      8.48329682	     -5.28288334
      2.34000000	      2.36877579	    -11.83548397	    -29.96443367	      0.74930304	      0.82245510	      0.59515539	     22.00492830	     15.88902447	     -4.84046593	    -50.23567413	     26.66446391	    -28.28020064	     20.26110446	    -16.89542706	      9.98833184	    -92.08313501	      0.86096189	     -4.54046756	    -17.43335329	      8.69128125	     -3.58557042
      2.35000000	      2.61681472	    -12.17614555	    -29.62903352	      0.76606156	      0.82336550	      0.60388179	     20.06973349	     16.21290194	     -4.73689359	    -50.22999944	     28.04161552	    -28.79227258	     23.43747036	    -16.78340211	     11.29778081	    -92.24181550	      1.74526746	     -4.81944215	    -17.79235580	      8.71518410	     -1.81251675
      2.36000000	      2.88653302	    -12.36773766	    -29.29259797	      0.78275857	      0.82532053	      0.61258814	     17.93314373	     16.36889910	     -4.60792183	    -49.77190045	     29.16554438	    -29.14545235	     26.37356600	    -16.46350871	     12.34898980	    -91.62864946	      2.47222245	     -5.00601474	    -18.03773926	      8.53841869	      0.04188781
